<svg width="113" height="25" viewBox="0 0 113 25" fill="none" xmlns="http://www.w3.org/2000/svg">
<rect x="89.8691" y="0.0939941" width="13.6858" height="13.6858" rx="6.84288" fill="#2DF842" fill-opacity="0.32"/>
<rect x="92.229" y="2.45361" width="8.96653" height="8.96653" rx="4.48327" fill="#2DF842" fill-opacity="0.32"/>
<path d="M1.35914 24.634C0.916159 24.634 0.573858 24.5232 0.332234 24.3017C0.110745 24.0601 0 23.7178 0 23.2748V4.69995C0 4.25697 0.110745 3.92474 0.332234 3.70325C0.573858 3.46163 0.916159 3.34081 1.35914 3.34081H12.5947C12.937 3.34081 13.1987 3.43142 13.38 3.61264C13.5612 3.79386 13.6518 4.04555 13.6518 4.36772C13.6518 4.71002 13.5612 4.97178 13.38 5.153C13.1987 5.33422 12.937 5.42483 12.5947 5.42483H2.41624V12.7944H11.9604C12.3027 12.7944 12.5645 12.885 12.7457 13.0662C12.9269 13.2273 13.0175 13.479 13.0175 13.8213C13.0175 14.1636 12.9269 14.4253 12.7457 14.6066C12.5645 14.7878 12.3027 14.8784 11.9604 14.8784H2.41624V22.55H12.5947C12.937 22.55 13.1987 22.6406 13.38 22.8218C13.5612 23.003 13.6518 23.2547 13.6518 23.5769C13.6518 23.9192 13.5612 24.1809 13.38 24.3621C13.1987 24.5434 12.937 24.634 12.5947 24.634H1.35914Z" fill="black"/>
<path d="M22.7762 24.9058C21.3063 24.9058 20.0378 24.5836 18.9706 23.9393C17.9034 23.295 17.0779 22.3989 16.4939 21.2512C15.9301 20.0834 15.6482 18.7343 15.6482 17.204C15.6482 16.0362 15.8093 14.9891 16.1315 14.0629C16.4537 13.1367 16.9268 12.3514 17.551 11.7071C18.1752 11.0426 18.9202 10.5392 19.7861 10.1969C20.672 9.85461 21.6687 9.68346 22.7762 9.68346C23.501 9.68346 24.2561 9.7942 25.0414 10.0157C25.8267 10.2372 26.5415 10.6198 27.1858 11.1634C27.3872 11.3044 27.518 11.4755 27.5785 11.6769C27.6389 11.8782 27.6389 12.0796 27.5785 12.2809C27.518 12.4621 27.4174 12.6232 27.2764 12.7642C27.1355 12.885 26.9543 12.9555 26.7328 12.9756C26.5314 12.9957 26.32 12.9253 26.0985 12.7642C25.575 12.3615 25.0414 12.0796 24.4977 11.9185C23.9541 11.7574 23.4306 11.6769 22.9272 11.6769C22.1419 11.6769 21.4573 11.8077 20.8734 12.0695C20.2895 12.3111 19.7961 12.6635 19.3934 13.1266C18.9907 13.5897 18.6786 14.1636 18.4571 14.8482C18.2558 15.5328 18.1551 16.3281 18.1551 17.2342C18.1551 18.986 18.5679 20.3753 19.3934 21.4022C20.219 22.409 21.3969 22.9124 22.9272 22.9124C23.4306 22.9124 23.944 22.8319 24.4675 22.6708C25.0112 22.5097 25.5548 22.2278 26.0985 21.8251C26.32 21.664 26.5314 21.5935 26.7328 21.6137C26.9341 21.6338 27.1053 21.7143 27.2462 21.8553C27.3872 21.9761 27.4778 22.1372 27.518 22.3385C27.5785 22.5399 27.5785 22.7412 27.518 22.9426C27.4576 23.1238 27.3268 23.2849 27.1254 23.4258C26.4811 23.9494 25.7763 24.3319 25.0112 24.5736C24.2461 24.7951 23.501 24.9058 22.7762 24.9058Z" fill="black"/>
<path d="M35.7371 24.9058C34.3074 24.9058 33.0691 24.5937 32.0221 23.9695C30.975 23.3453 30.1596 22.4694 29.5756 21.3418C29.0118 20.1941 28.7299 18.845 28.7299 17.2946C28.7299 16.1268 28.891 15.0797 29.2132 14.1535C29.5354 13.2071 30.0085 12.4017 30.6327 11.7373C31.2569 11.0728 31.9919 10.5694 32.8376 10.2271C33.7034 9.86467 34.6699 9.68346 35.7371 9.68346C37.1667 9.68346 38.405 9.99555 39.452 10.6198C40.4991 11.2439 41.3045 12.1299 41.8683 13.2776C42.4522 14.4052 42.7442 15.7442 42.7442 17.2946C42.7442 18.4625 42.5831 19.5095 42.2609 20.4357C41.9387 21.362 41.4656 22.1674 40.8414 22.852C40.2172 23.5165 39.4722 24.0299 38.6063 24.3923C37.7607 24.7346 36.8042 24.9058 35.7371 24.9058ZM35.7371 22.9426C36.6431 22.9426 37.4385 22.7211 38.1231 22.2781C38.8077 21.8352 39.3312 21.1908 39.6937 20.3451C40.0762 19.4994 40.2675 18.4826 40.2675 17.2946C40.2675 15.4623 39.8547 14.0629 39.0292 13.0964C38.2238 12.1299 37.1264 11.6467 35.7371 11.6467C34.8108 11.6467 34.0054 11.8681 33.3208 12.3111C32.6563 12.734 32.1328 13.3682 31.7502 14.2139C31.3878 15.0395 31.2066 16.0664 31.2066 17.2946C31.2066 19.1068 31.6194 20.5062 32.4449 21.4929C33.2705 22.4593 34.3678 22.9426 35.7371 22.9426Z" fill="black"/>
<path d="M47.0229 24.8454C46.6201 24.8454 46.3181 24.7346 46.1168 24.5132C45.9154 24.2917 45.8147 23.9796 45.8147 23.5769V10.9822C45.8147 10.5795 45.9154 10.2774 46.1168 10.0761C46.3181 9.85461 46.6101 9.74386 46.9926 9.74386C47.3752 9.74386 47.6672 9.85461 47.8685 10.0761C48.09 10.2774 48.2008 10.5795 48.2008 10.9822V13.5796L47.8685 13.2172C48.2914 12.0494 48.976 11.1735 49.9223 10.5895C50.8888 9.98549 51.9963 9.68346 53.2447 9.68346C54.4125 9.68346 55.379 9.89488 56.1442 10.3177C56.9295 10.7406 57.5134 11.3849 57.896 12.2507C58.2785 13.0964 58.4698 14.1736 58.4698 15.4824V23.5769C58.4698 23.9796 58.3591 24.2917 58.1376 24.5132C57.9362 24.7346 57.6443 24.8454 57.2617 24.8454C56.859 24.8454 56.5469 24.7346 56.3254 24.5132C56.124 24.2917 56.0234 23.9796 56.0234 23.5769V15.6335C56.0234 14.2643 55.7515 13.2676 55.2079 12.6434C54.6844 11.999 53.8387 11.6769 52.6708 11.6769C51.3218 11.6769 50.2445 12.0997 49.4391 12.9454C48.6538 13.7709 48.2612 14.8784 48.2612 16.2677V23.5769C48.2612 24.4225 47.8484 24.8454 47.0229 24.8454Z" fill="black"/>
<path d="M68.4779 24.9058C67.0483 24.9058 65.8099 24.5937 64.7629 23.9695C63.7159 23.3453 62.9004 22.4694 62.3164 21.3418C61.7527 20.1941 61.4708 18.845 61.4708 17.2946C61.4708 16.1268 61.6318 15.0797 61.954 14.1535C62.2762 13.2071 62.7494 12.4017 63.3736 11.7373C63.9978 11.0728 64.7327 10.5694 65.5784 10.2271C66.4442 9.86467 67.4107 9.68346 68.4779 9.68346C69.9075 9.68346 71.1458 9.99555 72.1929 10.6198C73.2399 11.2439 74.0453 12.1299 74.6091 13.2776C75.193 14.4052 75.485 15.7442 75.485 17.2946C75.485 18.4625 75.3239 19.5095 75.0017 20.4357C74.6796 21.362 74.2064 22.1674 73.5822 22.852C72.958 23.5165 72.213 24.0299 71.3472 24.3923C70.5015 24.7346 69.545 24.9058 68.4779 24.9058ZM68.4779 22.9426C69.384 22.9426 70.1793 22.7211 70.8639 22.2781C71.5485 21.8352 72.072 21.1908 72.4345 20.3451C72.817 19.4994 73.0083 18.4826 73.0083 17.2946C73.0083 15.4623 72.5956 14.0629 71.77 13.0964C70.9646 12.1299 69.8672 11.6467 68.4779 11.6467C67.5516 11.6467 66.7462 11.8681 66.0616 12.3111C65.3972 12.734 64.8736 13.3682 64.4911 14.2139C64.1286 15.0395 63.9474 16.0664 63.9474 17.2946C63.9474 19.1068 64.3602 20.5062 65.1857 21.4929C66.0113 22.4593 67.1087 22.9426 68.4779 22.9426Z" fill="black"/>
<path d="M85.9855 24.9058C84.6566 24.9058 83.5089 24.5635 82.5424 23.8789C81.596 23.1943 80.9617 22.2781 80.6396 21.1304L80.9718 20.7982V23.5769C80.9718 23.9796 80.861 24.2917 80.6396 24.5132C80.4382 24.7346 80.1462 24.8454 79.7637 24.8454C79.361 24.8454 79.0589 24.7346 78.8576 24.5132C78.6562 24.2917 78.5555 23.9796 78.5555 23.5769V4.36772C78.5555 3.96501 78.6562 3.66298 78.8576 3.46163C79.0589 3.24014 79.361 3.12939 79.7637 3.12939C80.1462 3.12939 80.4483 3.24014 80.6698 3.46163C80.8913 3.66298 81.002 3.96501 81.002 4.36772V13.3682H80.6396C80.9819 12.2406 81.6262 11.3446 82.5726 10.6802C83.5189 10.0157 84.6566 9.68346 85.9855 9.68346C87.3144 9.68346 88.4622 9.99555 89.4286 10.6198C90.3951 11.2238 91.1402 12.0997 91.6637 13.2474C92.2073 14.375 92.4792 15.7241 92.4792 17.2946C92.4792 18.845 92.2073 20.1941 91.6637 21.3418C91.1402 22.4694 90.3851 23.3453 89.3984 23.9695C88.4319 24.5937 87.2943 24.9058 85.9855 24.9058ZM85.472 22.9426C86.3983 22.9426 87.1936 22.7211 87.8581 22.2781C88.5427 21.8352 89.0662 21.1908 89.4286 20.3451C89.8112 19.4994 90.0025 18.4826 90.0025 17.2946C90.0025 15.4623 89.5897 14.0629 88.7642 13.0964C87.9588 12.1299 86.8614 11.6467 85.472 11.6467C84.566 11.6467 83.7706 11.8681 83.086 12.3111C82.4014 12.734 81.8678 13.3682 81.4852 14.2139C81.1228 15.0395 80.9416 16.0664 80.9416 17.2946C80.9416 19.1068 81.3544 20.5062 82.1799 21.4929C83.0055 22.4593 84.1028 22.9426 85.472 22.9426Z" fill="black"/>
<path d="M96.7682 24.785C96.3655 24.785 96.0635 24.6742 95.8621 24.4528C95.6608 24.2111 95.5601 23.8789 95.5601 23.4561V11.103C95.5601 10.6802 95.6608 10.358 95.8621 10.1365C96.0635 9.91501 96.3655 9.80427 96.7682 9.80427C97.1508 9.80427 97.4528 9.91501 97.6743 10.1365C97.8958 10.358 98.0065 10.6802 98.0065 11.103V23.4561C98.0065 23.8789 97.8958 24.2111 97.6743 24.4528C97.473 24.6742 97.1709 24.785 96.7682 24.785Z" fill="black"/>
<path d="M102.248 24.634C101.986 24.634 101.775 24.5736 101.613 24.4528C101.452 24.3319 101.342 24.1709 101.281 23.9695C101.221 23.7681 101.221 23.5467 101.281 23.305C101.342 23.0634 101.473 22.8319 101.674 22.6104L110.191 11.2238V11.8581H102.127C101.805 11.8581 101.553 11.7775 101.372 11.6165C101.211 11.4352 101.13 11.1936 101.13 10.8916C101.13 10.5895 101.211 10.358 101.372 10.1969C101.553 10.0358 101.805 9.95528 102.127 9.95528H111.399C111.701 9.95528 111.943 10.0157 112.124 10.1365C112.325 10.2573 112.456 10.4184 112.517 10.6198C112.577 10.801 112.577 11.0124 112.517 11.254C112.476 11.4755 112.366 11.697 112.185 11.9185L103.516 23.4258V22.7312H112.003C112.668 22.7312 113 23.0433 113 23.6675C113 23.9695 112.909 24.2111 112.728 24.3923C112.567 24.5534 112.325 24.634 112.003 24.634H102.248Z" fill="black"/>
<rect x="95.2964" y="5.521" width="2.83154" height="2.83154" rx="1.41577" fill="#2DF842"/>
</svg>
